/* XPM */
static char *moneta__[] = {
/* columns rows colors chars-per-pixel */
"16 16 83 1",
"  c #B68937",
". c #B78B36",
"X c #BE8D36",
"o c #BF8F37",
"O c #B98E3E",
"+ c #BC923E",
"@ c #C09038",
"# c #D6A93F",
"$ c #B88F43",
"% c #BD9440",
"& c #BC9441",
"* c #BC9445",
"= c #BC944A",
"- c #BD944A",
"; c #BB944C",
": c #BF994F",
"> c #C29444",
", c #C29A42",
"< c #C39B46",
"1 c #C99C47",
"2 c #C59A4A",
"3 c #C59D4D",
"4 c #CB9F49",
"5 c #CB9F4B",
"6 c #C79D50",
"7 c #C99F52",
"8 c #C19E5A",
"9 c #CEA140",
"0 c #CDA143",
"q c #D1A441",
"w c #DAAE40",
"e c #D9AD46",
"r c #D0A549",
"t c #D7AC48",
"y c #D0A84F",
"u c #D6AD4F",
"i c #DCB146",
"p c #DFB549",
"a c #DFB64C",
"s c #DEB64D",
"d c #DEB64E",
"f c #C5A050",
"g c #C4A054",
"h c #C9A250",
"j c #C3A05A",
"k c #C5A25B",
"l c #C7A55D",
"z c #C6A55F",
"x c #C8A65E",
"c c #D0AD52",
"v c #D0AC5C",
"b c #DCB451",
"n c #D8B155",
"m c #DCB556",
"M c #DFB957",
"N c #D2B15E",
"B c #D9B25B",
"V c #DDB758",
"C c #D9B35C",
"Z c #E2BA4F",
"A c #E0B953",
"S c #E1BB56",
"D c #E2BD5B",
"F c #E3BE5B",
"G c #E4BF5A",
"H c #C4A363",
"J c #CAA960",
"K c #CCAE6A",
"L c #CAAC6E",
"P c #CDAF6E",
"I c #D1B266",
"U c #DFBB61",
"Y c #DCB867",
"T c #DFBC6D",
"R c #D2AF72",
"E c #D2B071",
"W c #D8B975",
"Q c #E4C163",
"! c #E3C16B",
"~ c #E2C06C",
"^ c #E4C36C",
"/ c #EBCD7F",
"( c None",
/* pixels */
"((((((((((((((((",
"((((((G/R>((((((",
"((((SpD((2 $((((",
"(((iS((((((=O(((",
"((bV((((((((:*((",
"((#(((5143(((+((",
"(nC((Um(((I((kh(",
"(yB((ddQ(Nc((P0(",
"(fv((9r(l,<((Wq(",
"(gl((=(((H;((Yc(",
"(L&(((lJKx(((eT(",
"((&j((((((((~e((",
"(((.8((((((~w(((",
"((((oo7((~AZ((((",
"(((((7@E(ZF(((((",
"(((((((((((((((("
};
