/* XPM */
static char *moneta__[] = {
/* columns rows colors chars-per-pixel */
"64 64 116 2",
"   c #BA872C",
".  c #BD8B2E",
"X  c #B48636",
"o  c #B68936",
"O  c #BE8D34",
"+  c #B68A3C",
"@  c #BA8E3B",
"#  c #BF9037",
"$  c #BC923D",
"%  c #C08F36",
"&  c #C08F3B",
"*  c #C39234",
"=  c #CC9C34",
"-  c #C2933A",
";  c #C79A3D",
":  c #CB9C3C",
">  c #CEA03E",
",  c #D2A43D",
"<  c #D6A93F",
"1  c #DFB33F",
"2  c #B78D42",
"3  c #B98F41",
"4  c #B88F49",
"5  c #BD9443",
"6  c #BF9847",
"7  c #BD954A",
"8  c #BF984A",
"9  c #BF9A54",
"0  c #BF9A5A",
"q  c #C19643",
"w  c #C29A45",
"e  c #CA9C42",
"r  c #C39C4A",
"t  c #CA9E49",
"y  c #C39D53",
"u  c #C89E53",
"i  c #C19E5A",
"p  c #C7A045",
"a  c #CDA244",
"s  c #CFA947",
"d  c #C7A14A",
"f  c #C9A44D",
"g  c #CDA94D",
"h  c #D2A544",
"j  c #D5AA45",
"k  c #D9AE45",
"l  c #D2A649",
"z  c #D5AC49",
"x  c #D8AE49",
"c  c #DCB246",
"v  c #DDB44C",
"b  c #C6A253",
"n  c #CAA454",
"m  c #CEAA52",
"M  c #C5A159",
"N  c #CAA75D",
"B  c #CDAB5A",
"V  c #D3AE53",
"C  c #D3AE5C",
"Z  c #D3B157",
"A  c #DDB651",
"S  c #DFB955",
"D  c #D4B25A",
"F  c #DAB55C",
"G  c #E0B543",
"H  c #E0B74E",
"J  c #E1B94D",
"K  c #E1B951",
"L  c #E2BD5B",
"P  c #C5A464",
"I  c #CBAA64",
"U  c #C6A76B",
"Y  c #CBAB6B",
"T  c #D4AE61",
"R  c #D2AF6B",
"E  c #CFB065",
"W  c #CEB16C",
"Q  c #D2B164",
"!  c #DEBA64",
"~  c #D3B66C",
"^  c #D9B66C",
"/  c #D6B96B",
"(  c #DEBB6C",
")  c #C5A771",
"_  c #CAAC73",
"`  c #D2AF71",
"'  c #CEB173",
"]  c #CDB27A",
"[  c #D3B473",
"{  c #D8B673",
"}  c #D7BA72",
"|  c #DDBD75",
" . c #D4B57B",
".. c #D5BA7B",
"X. c #DDBD7B",
"o. c #E2BE63",
"O. c #E0BE6B",
"+. c #E5C15F",
"@. c #D9C17B",
"#. c #E4C164",
"$. c #E5C36B",
"%. c #E9C76F",
"&. c #E5C574",
"*. c #E2C37B",
"=. c #E7C87A",
"-. c #E9CA78",
";. c #CEB583",
":. c #D8BF80",
">. c #DBC383",
",. c #DDC78D",
"<. c #EACE83",
"1. c #E4C98D",
"2. c #EED48F",
"3. c #E7CE93",
"4. c #EFD796",
"5. c None",
/* pixels */
"5.5.5.5.5.5.5.5.5.5.5.5.5.5.5.5.5.5.5.5.5.5.5.5.5.5.5.5.5.5.5.5.5.5.5.5.5.5.5.5.5.5.5.5.5.5.5.5.5.5.5.5.5.5.5.5.5.5.5.5.5.5.5.5.",
"5.5.5.5.5.5.5.5.5.5.5.5.5.5.5.5.5.5.5.5.5.5.5.5.5.5.5.5.5.5.5.5.5.5.5.5.5.5.5.5.5.5.5.5.5.5.5.5.5.5.5.5.5.5.5.5.5.5.5.5.5.5.5.5.",
"5.5.5.5.5.5.5.5.5.5.5.5.5.5.5.5.5.5.5.5.5.5.5.5.5.5.5.5.5.5.5.5.5.5.5.5.5.5.5.5.5.5.5.5.5.5.5.5.5.5.5.5.5.5.5.5.5.5.5.5.5.5.5.5.",
"5.5.5.5.5.5.5.5.5.5.5.5.5.5.5.5.5.5.5.5.5.5.5.5.5.5.5.5.5.5.5.5.5.5.5.5.5.5.5.5.5.5.5.5.5.5.5.5.5.5.5.5.5.5.5.5.5.5.5.5.5.5.5.5.",
"5.5.5.5.5.5.5.5.5.5.5.5.5.5.5.5.5.5.5.5.5.5.5.5.5.5.5.5.5.5.%.5.5.u I 5.5.5.5.5.5.5.5.5.5.5.5.5.5.5.5.5.5.5.5.5.5.5.5.5.5.5.5.5.",
"5.5.5.5.5.5.5.5.5.5.5.5.5.5.5.5.5.5.5.5.5.5.5.5.5.+.#.J J +.J 5.5.O O O * q u 5.5.5.5.5.5.5.5.5.5.5.5.5.5.5.5.5.5.5.5.5.5.5.5.5.",
"5.5.5.5.5.5.5.5.5.5.5.5.5.5.5.5.5.5.5.5.5.5.$.K K K J +.+.G %.5.5. .  & $ O O O o 4 5.5.5.5.5.5.5.5.5.5.5.5.5.5.5.5.5.5.5.5.5.5.",
"5.5.5.5.5.5.5.5.5.5.5.5.5.5.5.5.5.5.5.5.L J H J K K K K G J 5.5.5.5.r O & O & O + + + 2 0 5.5.5.5.5.5.5.5.5.5.5.5.5.5.5.5.5.5.5.",
"5.5.5.5.5.5.5.5.5.5.5.5.5.5.5.5.5.5.L J H K K K K K K J G 5.5.5.5.5.5.O % % - % @ + 2 + + 2 5.5.5.5.5.5.5.5.5.5.5.5.5.5.5.5.5.5.",
"5.5.5.5.5.5.5.5.5.5.5.5.5.5.5.5.$.v J K v K K K A H K v $.5.5.5.5.5.5. .. & & - @ 2 2 + 3 + + 7 5.5.5.5.5.5.5.5.5.5.5.5.5.5.5.5.",
"5.5.5.5.5.5.5.5.5.5.5.5.5.5.5.K v J K A K A K J H v H K 5.5.5.5.5.5.5.5.n O % % @ 3 @ 2 2 + @ + 3 5.5.5.5.5.5.5.5.5.5.5.5.5.5.5.",
"5.5.5.5.5.5.5.5.5.5.5.5.5.5.A v v K v K A H v c K $.5.5.5.5.5.5.5.5.5.5.5.5.R r 3 + + 3 @ 3 3 3 @ + U 5.5.5.5.5.5.5.5.5.5.5.5.5.",
"5.5.5.5.5.5.5.5.5.5.5.5.5.v v J A v K v v v o.5.5.5.5.5.5.5.5.5.5.5.5.5.5.5.5.5.5.9 @ + 5 3 3 3 3 @ + P 5.5.5.5.5.5.5.5.5.5.5.5.",
"5.5.5.5.5.5.5.5.5.5.5.5.v v v v v v v c K 5.5.5.5.5.5.5.5.5.5.5.5.5.5.5.5.5.5.5.5.5.5.9 + + 3 2 3 3 2 o _ 5.5.5.5.5.5.5.5.5.5.5.",
"5.5.5.5.5.5.5.5.5.5.5.v v A v v v v c &.5.5.5.5.5.5.5.Q e q ; - - & & & T R 5.5.5.5.5.5.U 5 @ 5 5 + 5 @ + 5.5.5.5.5.5.5.5.5.5.5.",
"5.5.5.5.5.5.5.5.5.5.A c v v v v k v 5.5.5.5.5.5.^ a : * t ; e n n q O r % % ; N 5.5.5.5.5.5.5 + 5 5 2 5 5 @ 5.5.5.5.5.5.5.5.5.5.",
"5.5.5.5.5.5.5.5.5.! c v v x v k v 5.5.5.5.5.*.h = h R 5.5.5.5.5.5.5.5.5.5.5.t - 6 I 5.5.5.5.5.y + 5 5 5 5 + 5 5.5.5.5.5.5.5.5.5.",
"5.5.5.5.5.5.5.5.5.k c v v v k v 5.5.5.5.5.Z = h 5.5.5.5.5.5.5.5.5.5.5.5.5.5.5.5.r $ f 5.5.5.5.5.8 @ 5 5 5 5 + P 5.5.5.5.5.5.5.5.",
"5.5.5.5.5.5.5.5.A x v x x c j 5.5.5.5.5.k h F 5.5.5.5.5.5.5.5.5.5.5.5.5.5.5.5.5.5.5.w w [ 5.5.5.5.5 + 5 5 5 5 @ 5.5.5.5.5.5.5.5.",
"5.5.5.5.5.5.5.O.j x x x x j &.5.5.5.5.j j 5.5.5.5.5.5.5.5.5.r % O q 5.5.5.5.5.5.5.5.5.b w :.5.5.5.5.$ 5 5 5 5 O y 5.5.5.5.5.5.5.",
"5.5.5.5.5.5.5.k k x x x k F 5.5.5.5.k x 5.5.5.5.5.5.5.w & % % - & % O * w 5.5.5.5.5.5.5.w d ~ 5.5.5.U $ 5 q $ 6 $ 5.5.5.5.5.5.5.",
"5.5.5.5.5.5.5.j x x x x j 5.5.5.5.A < 5.5.5.5.5.5.t ; - - e w ; ; - t ; - - w 5.5.5.5.5.5.m g 5.5.5.5.6 5 5 6 6 $ M 5.5.5.5.5.5.",
"5.5.5.5.5.5.A j x x k j ! 5.5.5.$.c 5.5.5.5.5.5.e : : e : C 5.* : 5.5.; : e $ 6 U 5.5.5.5.5.p Q 5.5.5.] $ 6 6 $ 6 $ 5.5.5.5.5.5.",
"5.5.5.5.5.5.j j z x k j 5.5.5.5.c A 5.5.5.5.5.h a e h h > C 5.= : 5.5.: h d w w q I 5.5.5.5.B s :.5.5.5.r 6 6 6 6 $ 5.5.5.5.5.5.",
"5.5.5.5.5.! h j j z h F 5.5.5.#.c 5.5.5.5.5.h h j 5.5.5.5.5.5.5.5.5.5.5.5.5.5.W p w 5.5.5.5.5.m Z 5.5.5.' $ 6 w w 6 n 5.5.5.5.5.",
"5.5.5.5.5.A j j z j < 5.5.5.5.H S 5.5.5.5.Z j k x 5.5.5.5.5.5.5.5.5.5.5.5.5.5...d f d 5.5.5.5.5.a 5.5.5.5.w 5 6 6 6 ; 5.5.5.5.5.",
"5.5.5.5.5.l j j j j z 5.5.5.<.G 5.5.5.5.5.k v v v 5.5.5.5.5.5.5.5.5.5.5.5.5.5.Q g m g E 5.5.5.5.m / 5.5.5.y 6 w 6 q > 5.5.5.5.5.",
"5.5.5.5.5.j j l l j V 5.5.5.L K 5.5.5.5.K J A K H L o.#.+.#.#.+.o.5.5.5.5.5.Z V Z Z Z V 5.5.5.5.Q Z 5.5.5.' $ 6 q e : 5.5.5.5.5.",
"5.5.5.5.5.h j h h , | 5.5.5.K L 5.5.5.5.J K K K K K K K K K K J $.5.5.5.5.5.Z F D D D Z 5.5.5.5...V 5.5.5.Y w r w a : ^ 5.5.5.5.",
"5.5.5.5.~ , l l h , | 5.5.5.J &.5.5.5.$.v K K A K K A A K J v #.5.5.5.5.5.Z Z Z Z C Z Z / 5.5.5.5.s ,.5.5.5.r w t a : V 5.5.5.5.",
"5.5.5.5.' > h l h h 5.5.5.5.G 5.5.5.5.#.v v v v v v v v v v A 5.5.5.5.5.g m m m m m m m m 5.5.5.5.Z @.5.5.5.r w a a a z 5.5.5.5.",
"5.5.5.5.I w a h h h 5.5.5.4.1 5.5.5.5.F k c x x v x x x v x 5.5.5.5.5.E f m m m m m m m m 5.5.5.5.Z / 5.5.5.r e h h a h 5.5.5.5.",
"5.5.5.5.I w d d h h 5.5.5.2.J 5.5.5.5.V h j j z z j j j j 5.5.5.5.5.B d f b f f f f b f f 5.5.5.5.D / 5.5.5.t a h h h a 5.5.5.5.",
"5.5.5.5.I w r r w h 5.5.5.4.1 5.5.5.5.D h l h h h l h , V 5.5.5.5.5.w d d d d r d d r d r 5.5.5.5.D } 5.5.5.f h a h h h 5.5.5.5.",
"5.5.5.5.W ; r r r p 5.5.5.5.J 5.5.5.5.C : a a a e h > C 5.5.5.5.5.- r w w w 8 r w w w q r 5.5.5.5.V >.5.5.5.h h h h h V 5.5.5.5.",
"5.5.5.5.W 6 r w r q _ 5.5.5.K $.5.5.5.T : e : : e ; w 5.5.5.5.5.y 6 6 6 6 6 6 6 6 6 6 6 M 5.5.5.5.z >.5.5.5., h h h h D 5.5.5.5.",
"5.5.5.5.5.w w r w q W 5.5.5.F F 5.5.5.5.- - q 6 q 5 5.5.5.5.5.$ @ $ @ @ $ @ @ $ 5 6 5 $ Y 5.5.5.} V 5.5.5.1., h l h , ( 5.5.5.5.",
"5.5.5.5.5.w w w w 6 f 5.5.5./ m 5.5.5.5.7 @ 5 3 @ 5.5.5.5.5.5._ Y _ _ _ _ _ ' 9 + 2 @ + 5.5.5.5.Q Z 5.5.5.| , h j j h 5.5.5.5.5.",
"5.5.5.5.5.w 6 w w w 6 5.5.5.>.s 5.5.5.5.5.+ 2 + 3 5.5.5.5.5.5.5.5.5.5.5.5.5.5._ X + + M 5.5.5.5.g / 5.5.5.V j j z h h 5.5.5.5.5.",
"5.5.5.5.5.i 6 6 6 5 6 ] 5.5.5.Z D 5.5.5.5.4 X 2 5.5.5.5.5.5.5.5.5.5.5.5.5.5.5.) X + + 5.5.5.5.Q g 5.5.5.5.h j j z j k 5.5.5.5.5.",
"5.5.5.5.5.Y $ w 6 - 6 M 5.5.5.| z 5.5.5.5.5.5 + I 5.5.5.5.5.5.5.5.5.5.5.5.5.5.U @ @ 5.5.5.5.5.g Q 5.5.5.| < z j j h F 5.5.5.5.5.",
"5.5.5.5.5.5.6 6 6 6 6 $ 5.5.5.5.z C 5.5.5.5.5.6 6 6 6 6 6 P 5.$ $ 5.5.6 6 6 6 6 $ 5.5.5.5.5.W a 5.5.5.5.k h x z k j 5.5.5.5.5.5.",
"5.5.5.5.5.5.w 5 6 6 6 $ y 5.5.5.:.s [ 5.5.5.5.5.b q w w ; N 5.$ q 5.5.q r w w w 5.5.5.5.5.5.a ! 5.5.5.<.< x x z k j 5.5.5.5.5.5.",
"5.5.5.5.5.5.5.$ $ 6 6 $ $ 5.5.5.5.B f 5.5.5.5.5.5.N m d d b m f f d m f d f B 5.5.5.5.5.5.a x 5.5.5.5.k j x x x j o.5.5.5.5.5.5.",
"5.5.5.5.5.5.5.8 5 5 6 6 5 6 5.5.5.5.C d 5.5.5.5.5.5.5.Q B m g m m m g Z E 5.5.5.5.5.5.5.a j 5.5.5.5.! j x x x x k 5.5.5.5.5.5.5.",
"5.5.5.5.5.5.5.5.@ 5 6 5 6 $ M 5.5.5.5.g p 5.5.5.5.5.5.5.5.5.5.5.5.5.5.5.5.5.5.5.5.5.5.h , 3.5.5.5.5.< v x x x k ! 5.5.5.5.5.5.5.",
"5.5.5.5.5.5.5.5.6 $ 5 5 5 5 @ ] 5.5.5.5.B p n 5.5.5.5.5.5.5.5.5.5.5.5.5.5.5.5.5.5.B : h 5.5.5.5.5.j k x x x x k 5.5.5.5.5.5.5.5.",
"5.5.5.5.5.5.5.5.5.+ 5 @ 5 5 5 @ 5.5.5.5.5.I w r n 5.5.5.5.5.5.5.5.5.5.5.5.5.5.5.t = V 5.5.5.5.5.A k v v v v k 5.5.5.5.5.5.5.5.5.",
"5.5.5.5.5.5.5.5.5.P + 5 5 5 3 3 @ ;.5.5.5.5.5.M q w M 5.5.5.5.5.5.5.5.5.5.M ; * e X.5.5.5.5.5.v k v v x v k A 5.5.5.5.5.5.5.5.5.",
"5.5.5.5.5.5.5.5.5.5.5 @ 5 3 3 5 @ @ i 5.5.5.5.5.' b 6 # 5 8 6 + + @ 7 @ . * t } 5.5.5.5.5.5.v v v v v v v v 5.5.5.5.5.5.5.5.5.5.",
"5.5.5.5.5.5.5.5.5.5.5.5 + 3 3 5 5 2 @ y 5.5.5.5.5.5.5.I P 6 7 q 7 q O u [ 5.5.5.5.5.5.5.&.c v v A v v v v 5.5.5.5.5.5.5.5.5.5.5.",
"5.5.5.5.5.5.5.5.5.5.5.5.3 @ 3 @ 3 3 3 + 5 P 5.5.5.5.5.5.5.5.5.5.5.5.5.5.5.5.5.5.5.5.5.A c v v v v v v v 5.5.5.5.5.5.5.5.5.5.5.5.",
"5.5.5.5.5.5.5.5.5.5.5.5.5.; # $ $ $ & $ @ O q M 5.5.5.5.5.5.5.5.5.5.5.5.5.5.5.5.5.L c v J A v v v v v 5.5.5.5.5.5.5.5.5.5.5.5.5.",
"5.5.5.5.5.5.5.5.5.5.5.5.5.5.q # - - ; & - - - * - n n 5.5.5.5.5.5.5.5.5.5.5.&.A v v A v v v v S v K 5.5.5.5.5.5.5.5.5.5.5.5.5.5.",
"5.5.5.5.5.5.5.5.5.5.5.5.5.5.5.w % * - - - - - * - O O % 5.5.5.5.5.5.5.5.+.c v v K v K A K A H c L 5.5.5.5.5.5.5.5.5.5.5.5.5.5.5.",
"5.5.5.5.5.5.5.5.5.5.5.5.5.5.5.5.5.% O & - - & - - - - O r 5.5.5.5.5.5.=.c K J K A K K J K v H $.5.5.5.5.5.5.5.5.5.5.5.5.5.5.5.5.",
"5.5.5.5.5.5.5.5.5.5.5.5.5.5.5.5.5.5.u % O * - & & - & - . ` 5.5.5.5.5.J J K A J K K H H H L 5.5.5.5.5.5.5.5.5.5.5.5.5.5.5.5.5.5.",
"5.5.5.5.5.5.5.5.5.5.5.5.5.5.5.5.5.5.5.5.u O O % & & @ O O O 5.5.5.5.+.J J K K K J J K L 5.5.5.5.5.5.5.5.5.5.5.5.5.5.5.5.5.5.5.5.",
"5.5.5.5.5.5.5.5.5.5.5.5.5.5.5.5.5.5.5.5.5.5.y q O O O O & . r 5.5.-.J K J J K K L +.5.5.5.5.5.5.5.5.5.5.5.5.5.5.5.5.5.5.5.5.5.5.",
"5.5.5.5.5.5.5.5.5.5.5.5.5.5.5.5.5.5.5.5.5.5.5.5.5.5.u q O O    .5.J J K +.%.5.5.5.5.5.5.5.5.5.5.5.5.5.5.5.5.5.5.5.5.5.5.5.5.5.5.",
"5.5.5.5.5.5.5.5.5.5.5.5.5.5.5.5.5.5.5.5.5.5.5.5.5.5.5.5.5.5.5.5.5.5.5.5.5.5.5.5.5.5.5.5.5.5.5.5.5.5.5.5.5.5.5.5.5.5.5.5.5.5.5.5.",
"5.5.5.5.5.5.5.5.5.5.5.5.5.5.5.5.5.5.5.5.5.5.5.5.5.5.5.5.5.5.5.5.5.5.5.5.5.5.5.5.5.5.5.5.5.5.5.5.5.5.5.5.5.5.5.5.5.5.5.5.5.5.5.5.",
"5.5.5.5.5.5.5.5.5.5.5.5.5.5.5.5.5.5.5.5.5.5.5.5.5.5.5.5.5.5.5.5.5.5.5.5.5.5.5.5.5.5.5.5.5.5.5.5.5.5.5.5.5.5.5.5.5.5.5.5.5.5.5.5.",
"5.5.5.5.5.5.5.5.5.5.5.5.5.5.5.5.5.5.5.5.5.5.5.5.5.5.5.5.5.5.5.5.5.5.5.5.5.5.5.5.5.5.5.5.5.5.5.5.5.5.5.5.5.5.5.5.5.5.5.5.5.5.5.5."
};
